<svg xmlns="http://www.w3.org/2000/svg" viewBox="0 0 900 1050" role="img" aria-labelledby="t d">
  <title id="t">AI publishing workflow project preview</title><desc id="d">Modular content workflow connected by arrows.</desc>
  <rect width="900" height="1050" fill="#ff5a36"/><g stroke="#171915" opacity=".2"><path d="M0 105h900M0 210h900M0 315h900M0 420h900M0 525h900M0 630h900M0 735h900M0 840h900M0 945h900M105 0v1050M210 0v1050M315 0v1050M420 0v1050M525 0v1050M630 0v1050M735 0v1050M840 0v1050"/></g>
  <g font-family="Arial,sans-serif"><rect x="70" y="120" width="310" height="210" fill="#171915"/><text x="105" y="177" fill="#d8f45a" font-size="14" letter-spacing="4">01 / INPUT</text><text x="105" y="246" fill="#f2f0e9" font-size="32" font-weight="700">CONTENT</text><text x="105" y="285" fill="#f2f0e9" font-size="32" font-weight="700">BRIEF</text>
  <rect x="520" y="290" width="310" height="210" fill="#f2f0e9" stroke="#171915" stroke-width="5"/><text x="555" y="347" fill="#171915" font-size="14" letter-spacing="4">02 / ENRICH</text><text x="555" y="416" fill="#171915" font-size="32" font-weight="700">SEO +</text><text x="555" y="455" fill="#171915" font-size="32" font-weight="700">METADATA</text>
  <rect x="70" y="560" width="310" height="210" fill="#d8f45a" stroke="#171915" stroke-width="5"/><text x="105" y="617" fill="#171915" font-size="14" letter-spacing="4">03 / CONNECT</text><text x="105" y="686" fill="#171915" font-size="32" font-weight="700">INTERNAL</text><text x="105" y="725" fill="#171915" font-size="32" font-weight="700">LINKS</text>
  <rect x="520" y="730" width="310" height="210" fill="#171915"/><text x="555" y="787" fill="#ff5a36" font-size="14" letter-spacing="4">04 / PUBLISH</text><text x="555" y="856" fill="#f2f0e9" font-size="32" font-weight="700">WORDPRESS</text><text x="555" y="895" fill="#f2f0e9" font-size="32" font-weight="700">REST API</text></g>
  <g fill="none" stroke="#171915" stroke-width="7"><path d="M380 225h90v170h50"/><path d="M675 500v120H380"/><path d="M380 665h80v170h60"/></g><g fill="#171915"><path d="m515 378 20 17-20 17z"/><path d="m395 603-20 17 20 17z"/><path d="m515 818 20 17-20 17z"/></g>
</svg>
